<?xml version="1.0" encoding="UTF-8" standalone="no"?>
<!DOCTYPE svg PUBLIC "-//W3C//DTD SVG 1.1//EN" "http://www.w3.org/Graphics/SVG/1.1/DTD/svg11.dtd">
<svg width="100%" height="100%" viewBox="0 0 391 165" version="1.1" xmlns="http://www.w3.org/2000/svg" style="fill-rule:evenodd;clip-rule:evenodd;stroke-linejoin:round;stroke-miterlimit:2;">
    <g transform="matrix(1,0,0,1,-2518,-1049)">
        <g transform="matrix(1,0,0,1,-0.67075,-0.0798813)">
            <g transform="matrix(1,0,0,1,0.67075,0.0798813)">
                <path d="M2572.66,1089.91C2568.74,1089.91 2565.37,1091.28 2562.56,1094.02C2559.82,1096.83 2558.45,1100.2 2558.45,1104.12L2558.45,1204.93C2558.45,1207.3 2557.6,1209.33 2555.89,1211.04C2554.27,1212.66 2552.27,1213.48 2549.9,1213.48C2547.53,1213.48 2545.5,1212.66 2543.79,1211.04C2542.17,1209.41 2541.35,1207.37 2541.35,1204.93L2541.35,1104.12C2541.35,1095.46 2544.39,1088.06 2550.45,1081.92C2556.6,1075.85 2564,1072.82 2572.66,1072.82L2578.43,1072.82C2587.09,1072.82 2594.49,1075.85 2600.64,1081.92C2606.7,1088.06 2609.74,1095.46 2609.74,1104.12C2609.74,1112.78 2606.7,1120.18 2600.64,1126.33C2594.49,1132.47 2587.09,1135.54 2578.43,1135.54L2570.77,1135.54C2568.4,1135.54 2566.41,1134.73 2564.78,1133.1C2563.15,1131.4 2562.33,1129.36 2562.33,1126.99C2562.33,1124.63 2563.15,1122.63 2564.78,1121C2566.41,1119.3 2568.4,1118.45 2570.77,1118.45L2578.43,1118.45C2582.35,1118.45 2585.72,1117.04 2588.53,1114.23C2591.27,1111.49 2592.64,1108.12 2592.64,1104.12C2592.64,1100.2 2591.27,1096.83 2588.53,1094.02C2585.72,1091.28 2582.35,1089.91 2578.43,1089.91L2572.66,1089.91ZM2734.08,1213.48C2711.58,1213.48 2692.34,1205.48 2676.35,1189.5C2660.36,1173.51 2652.37,1154.27 2652.37,1131.77C2652.37,1109.19 2660.36,1089.91 2676.35,1073.93C2692.34,1057.94 2711.58,1049.95 2734.08,1049.95C2754.21,1049.95 2771.94,1056.46 2787.26,1069.49C2789.03,1071.26 2790.03,1073.34 2790.26,1075.7C2790.26,1078.44 2789.4,1080.66 2787.7,1082.37C2785.93,1084.07 2783.93,1084.99 2781.71,1085.14C2779.49,1085.21 2777.49,1084.51 2775.71,1083.03C2763.72,1072.82 2749.84,1067.71 2734.08,1067.71C2716.47,1067.71 2701.4,1073.96 2688.89,1086.47C2676.39,1098.98 2670.13,1114.08 2670.13,1131.77C2670.13,1149.38 2676.39,1164.44 2688.89,1176.95C2701.4,1189.46 2716.47,1195.71 2734.08,1195.71C2749.84,1195.71 2763.68,1190.61 2775.6,1180.39C2777.38,1178.91 2779.38,1178.21 2781.6,1178.29C2783.82,1178.36 2785.78,1179.17 2787.48,1180.73L2788.03,1181.5C2789.51,1183.13 2790.26,1185.13 2790.26,1187.5C2790.03,1190.09 2789.03,1192.2 2787.26,1193.83C2772.01,1206.93 2754.28,1213.48 2734.08,1213.48ZM2570.77,1141.2C2568.4,1141.2 2566.41,1142.06 2564.78,1143.76C2563.15,1145.39 2562.33,1147.38 2562.33,1149.75C2562.33,1152.12 2563.15,1154.16 2564.78,1155.86C2566.41,1157.56 2568.4,1158.41 2570.77,1158.41L2578.43,1158.41C2593.38,1158.41 2606.15,1153.12 2616.73,1142.54C2627.32,1131.88 2632.61,1119.08 2632.61,1104.12C2632.61,1089.17 2627.32,1076.41 2616.73,1065.82C2606.15,1055.24 2593.38,1049.95 2578.43,1049.95L2572.66,1049.95C2557.71,1049.95 2544.94,1055.24 2534.36,1065.82C2523.77,1076.41 2518.48,1089.17 2518.48,1104.12L2518.48,1204.93C2518.48,1207.37 2519.33,1209.41 2521.03,1211.04C2522.66,1212.66 2524.7,1213.48 2527.14,1213.48C2529.43,1213.48 2531.43,1212.66 2533.14,1211.04C2534.76,1209.33 2535.58,1207.3 2535.58,1204.93L2535.58,1104.12C2535.58,1093.91 2539.2,1085.18 2546.46,1077.92C2553.71,1070.67 2562.45,1067.04 2572.66,1067.04L2578.43,1067.04C2588.64,1067.04 2597.38,1070.67 2604.63,1077.92C2611.89,1085.18 2615.51,1093.91 2615.51,1104.12C2615.51,1114.41 2611.89,1123.18 2604.63,1130.44C2597.38,1137.62 2588.64,1141.2 2578.43,1141.2L2570.77,1141.2ZM2570.77,1196.38C2568.4,1196.38 2566.41,1197.19 2564.78,1198.82C2563.15,1200.53 2562.33,1202.52 2562.33,1204.82C2562.33,1207.26 2563.15,1209.3 2564.78,1210.92C2566.41,1212.63 2568.4,1213.48 2570.77,1213.48L2592.09,1213.48C2605.19,1213.48 2616.4,1208.85 2625.73,1199.6C2634.98,1190.28 2639.6,1179.06 2639.6,1165.96C2639.6,1161 2638.86,1156.15 2637.38,1151.42C2635.83,1146.68 2633.61,1142.32 2630.72,1138.32L2628.39,1135.1L2626.06,1138.32C2624.95,1139.87 2623.8,1141.35 2622.62,1142.76C2621.36,1144.16 2620.03,1145.5 2618.62,1146.76L2616.95,1148.42L2618.18,1150.31C2619.58,1152.68 2620.66,1155.19 2621.4,1157.86C2622.14,1160.45 2622.51,1163.15 2622.51,1165.96C2622.51,1174.33 2619.55,1181.5 2613.62,1187.5C2607.63,1193.42 2600.45,1196.38 2592.09,1196.38L2570.77,1196.38ZM2857.09,1213.48C2844.36,1213.48 2833.14,1209.26 2823.45,1200.82C2813.75,1192.38 2808.09,1181.87 2806.46,1169.29C2806.09,1166.63 2806.76,1164.3 2808.46,1162.3C2810.31,1160.23 2812.57,1159.19 2815.23,1159.19C2817.45,1159.19 2819.38,1159.93 2821.01,1161.41C2822.64,1162.89 2823.64,1164.7 2824.01,1166.85C2825.04,1175.07 2828.74,1181.95 2835.11,1187.5C2841.4,1192.98 2848.72,1195.71 2857.09,1195.71C2866.34,1195.71 2874.22,1192.46 2880.74,1185.94C2887.25,1179.36 2890.51,1171.44 2890.51,1162.19C2890.51,1151.9 2887.91,1144.28 2882.73,1139.32C2879.11,1135.84 2873.08,1133.03 2864.64,1130.88C2863.6,1130.58 2861.86,1130.14 2859.42,1129.55C2849.72,1127.25 2842.99,1124.77 2839.21,1122.11C2832.7,1117.52 2829.45,1110.53 2829.45,1101.13C2829.45,1093.58 2832.15,1087.1 2837.55,1081.7C2842.95,1076.3 2849.47,1073.59 2857.09,1073.59C2863.08,1073.59 2868.49,1075.33 2873.3,1078.81C2878.11,1082.29 2881.44,1086.88 2883.29,1092.58C2884.03,1095.54 2883.59,1098.2 2881.96,1100.57C2880.4,1102.72 2878.03,1103.9 2874.85,1104.12C2870.56,1104.12 2867.75,1102.13 2866.41,1098.13C2864.93,1093.61 2861.83,1091.36 2857.09,1091.36C2854.35,1091.36 2852.02,1092.32 2850.09,1094.24C2848.17,1096.17 2847.21,1098.46 2847.21,1101.13C2847.21,1104.38 2848.84,1106.94 2852.09,1108.79C2854.39,1110.05 2859.01,1111.56 2865.97,1113.34C2875.52,1115.78 2882.59,1118.26 2887.17,1120.78C2901.24,1128.47 2908.27,1142.28 2908.27,1162.19C2908.27,1176.32 2903.27,1188.39 2893.28,1198.38C2883.29,1208.44 2871.22,1213.48 2857.09,1213.48ZM2578.43,1084.14C2583.91,1084.14 2588.61,1086.1 2592.53,1090.03C2596.45,1093.95 2598.41,1098.65 2598.41,1104.12C2598.41,1109.67 2596.45,1114.38 2592.53,1118.22C2588.61,1122.15 2583.91,1124.11 2578.43,1124.11L2570.77,1124.11C2569.96,1124.11 2569.29,1124.37 2568.77,1124.88C2568.26,1125.48 2568,1126.18 2568,1126.99C2568,1127.81 2568.26,1128.47 2568.77,1128.99C2569.37,1129.59 2570.03,1129.88 2570.77,1129.88L2578.43,1129.88C2585.54,1129.88 2591.57,1127.36 2596.53,1122.33C2601.56,1117.3 2604.08,1111.23 2604.08,1104.12C2604.08,1097.02 2601.56,1090.99 2596.53,1086.03C2591.57,1081 2585.54,1078.48 2578.43,1078.48L2572.66,1078.48C2565.55,1078.48 2559.52,1081 2554.56,1086.03C2549.53,1090.99 2547.01,1097.02 2547.01,1104.12L2547.01,1204.93C2547.01,1205.74 2547.27,1206.41 2547.79,1206.93C2548.38,1207.52 2549.09,1207.82 2549.9,1207.82C2550.71,1207.82 2551.38,1207.52 2551.9,1206.93C2552.42,1206.41 2552.68,1205.74 2552.68,1204.93L2552.68,1104.12C2552.68,1098.65 2554.64,1093.95 2558.56,1090.03C2562.48,1086.1 2567.18,1084.14 2572.66,1084.14L2578.43,1084.14ZM2578.43,1146.98C2590.2,1146.98 2600.26,1142.8 2608.63,1134.43C2616.99,1126.07 2621.17,1115.97 2621.17,1104.12C2621.17,1092.36 2616.99,1082.29 2608.63,1073.93C2600.26,1065.56 2590.2,1061.38 2578.43,1061.38L2572.66,1061.38C2560.89,1061.38 2550.83,1065.56 2542.46,1073.93C2534.1,1082.29 2529.92,1092.36 2529.92,1104.12L2529.92,1204.93C2529.92,1205.74 2529.62,1206.41 2529.03,1206.93C2528.51,1207.52 2527.88,1207.82 2527.14,1207.82C2526.25,1207.82 2525.55,1207.52 2525.03,1206.93C2524.44,1206.41 2524.14,1205.74 2524.14,1204.93L2524.14,1104.12C2524.14,1090.73 2528.88,1079.29 2538.35,1069.82C2547.83,1060.35 2559.26,1055.61 2572.66,1055.61L2578.43,1055.61C2591.83,1055.61 2603.26,1060.35 2612.74,1069.82C2622.21,1079.29 2626.95,1090.73 2626.95,1104.12C2626.95,1117.52 2622.21,1128.95 2612.74,1138.43C2603.26,1147.9 2591.83,1152.64 2578.43,1152.64L2570.77,1152.64C2569.96,1152.64 2569.29,1152.38 2568.77,1151.86C2568.26,1151.27 2568,1150.57 2568,1149.75C2568,1149.01 2568.26,1148.35 2568.77,1147.76C2569.37,1147.24 2570.03,1146.98 2570.77,1146.98L2578.43,1146.98ZM2592.09,1202.04C2602.08,1202.04 2610.59,1198.53 2617.62,1191.5C2624.65,1184.46 2628.17,1175.95 2628.17,1165.96C2628.17,1162.7 2627.72,1159.49 2626.84,1156.3C2626.17,1153.93 2625.28,1151.64 2624.17,1149.42C2625.06,1148.46 2625.95,1147.46 2626.84,1146.42L2628.17,1144.87C2629.72,1147.53 2630.98,1150.31 2631.94,1153.19C2633.28,1157.27 2633.94,1161.52 2633.94,1165.96C2633.94,1177.51 2629.83,1187.35 2621.62,1195.49C2613.48,1203.71 2603.63,1207.82 2592.09,1207.82L2570.77,1207.82C2569.96,1207.82 2569.29,1207.52 2568.77,1206.93C2568.26,1206.41 2568,1205.71 2568,1204.82C2568,1204.08 2568.26,1203.45 2568.77,1202.93C2569.37,1202.34 2570.03,1202.04 2570.77,1202.04L2592.09,1202.04ZM2815.12,1165.18C2812.98,1165.41 2812.01,1166.48 2812.24,1168.4C2813.72,1179.58 2818.75,1188.9 2827.34,1196.38C2835.92,1203.86 2845.84,1207.59 2857.09,1207.59C2869.6,1207.59 2880.25,1203.15 2889.06,1194.27C2897.94,1185.39 2902.38,1174.69 2902.38,1162.19C2902.38,1144.57 2896.35,1132.47 2884.29,1125.88C2880.14,1123.66 2873.56,1121.37 2864.53,1119C2856.68,1117.08 2851.32,1115.23 2848.43,1113.45C2843.69,1110.56 2841.32,1106.46 2841.32,1101.13C2841.32,1096.83 2842.88,1093.13 2845.99,1090.03C2849.02,1086.99 2852.72,1085.47 2857.09,1085.47C2864.64,1085.47 2869.6,1089.06 2871.97,1096.24C2872.78,1098.17 2874.26,1098.8 2876.41,1098.13C2877.81,1097.54 2878.22,1096.28 2877.63,1094.36C2876.15,1089.91 2873.52,1086.32 2869.74,1083.59C2865.97,1080.92 2861.75,1079.59 2857.09,1079.59C2851.09,1079.59 2845.99,1081.7 2841.77,1085.92C2837.55,1090.14 2835.44,1095.21 2835.44,1101.13C2835.44,1108.6 2837.88,1114.04 2842.77,1117.45C2845.8,1119.52 2851.8,1121.66 2860.75,1123.89C2863.12,1124.4 2864.93,1124.85 2866.19,1125.22C2875.66,1127.59 2882.66,1131.03 2887.17,1135.54C2893.39,1141.61 2896.5,1150.49 2896.5,1162.19C2896.5,1173.07 2892.65,1182.36 2884.95,1190.05C2877.26,1197.75 2867.97,1201.6 2857.09,1201.6C2847.24,1201.6 2838.62,1198.38 2831.22,1191.94C2823.75,1185.43 2819.38,1177.36 2818.12,1167.74C2817.9,1166.04 2816.9,1165.18 2815.12,1165.18ZM2734.08,1055.94C2713.21,1055.94 2695.33,1063.34 2680.46,1078.15C2665.66,1092.95 2658.25,1110.82 2658.25,1131.77C2658.25,1152.64 2665.66,1170.48 2680.46,1185.28C2695.33,1200.15 2713.21,1207.59 2734.08,1207.59C2752.8,1207.59 2769.24,1201.53 2783.37,1189.39C2783.96,1188.87 2784.3,1188.16 2784.37,1187.28C2784.3,1186.46 2784,1185.8 2783.48,1185.28L2783.04,1184.84C2781.86,1183.87 2780.67,1183.91 2779.49,1184.95C2766.46,1196.05 2751.33,1201.6 2734.08,1201.6C2714.84,1201.6 2698.37,1194.79 2684.68,1181.17C2670.98,1167.48 2664.14,1151.01 2664.14,1131.77C2664.14,1112.45 2670.98,1095.98 2684.68,1082.37C2698.37,1068.67 2714.84,1061.83 2734.08,1061.83C2751.25,1061.83 2766.39,1067.41 2779.49,1078.59C2780.82,1079.63 2782.11,1079.52 2783.37,1078.26C2783.96,1077.66 2784.26,1076.89 2784.26,1075.93C2784.26,1075.18 2783.93,1074.48 2783.26,1073.82C2769.12,1061.9 2752.73,1055.94 2734.08,1055.94ZM2609.52,1183.39C2614.33,1178.58 2616.73,1172.77 2616.73,1165.96C2616.73,1164.04 2616.51,1162.11 2616.07,1160.19C2615.62,1158.26 2614.96,1156.41 2614.07,1154.64L2612.62,1151.86L2609.96,1153.53C2608.41,1154.56 2606.85,1155.49 2605.3,1156.3C2603.67,1157.12 2602.01,1157.86 2600.3,1158.52L2597.42,1159.75L2598.86,1162.52C2599.08,1163.04 2599.27,1163.59 2599.41,1164.18C2599.56,1164.7 2599.64,1165.3 2599.64,1165.96C2599.64,1168.03 2598.9,1169.81 2597.42,1171.29C2595.94,1172.77 2594.16,1173.51 2592.09,1173.51L2570.77,1173.51C2568.4,1173.51 2566.41,1174.36 2564.78,1176.06C2563.15,1177.69 2562.33,1179.69 2562.33,1182.06C2562.33,1184.43 2563.15,1186.46 2564.78,1188.16C2566.41,1189.79 2568.4,1190.61 2570.77,1190.61L2592.09,1190.61C2598.9,1190.61 2604.71,1188.2 2609.52,1183.39ZM2734.08,1189.83C2718.09,1189.83 2704.4,1184.13 2693,1172.73C2681.68,1161.41 2676.02,1147.76 2676.02,1131.77C2676.02,1115.71 2681.68,1102.02 2693,1090.69C2704.4,1079.29 2718.09,1073.59 2734.08,1073.59C2747.55,1073.59 2759.54,1077.74 2770.05,1086.03C2772.05,1087.51 2773.16,1089.62 2773.38,1092.36C2773.6,1094.95 2772.75,1097.2 2770.83,1099.13C2769.2,1100.76 2767.27,1101.68 2765.05,1101.9C2762.83,1102.05 2760.84,1101.42 2759.06,1100.02C2751.88,1094.24 2743.55,1091.36 2734.08,1091.36C2722.98,1091.36 2713.47,1095.32 2705.55,1103.24C2697.7,1111.08 2693.78,1120.59 2693.78,1131.77C2693.78,1142.87 2697.7,1152.38 2705.55,1160.3C2713.47,1168.14 2722.98,1172.07 2734.08,1172.07C2743.33,1172.07 2751.66,1169.18 2759.06,1163.41C2760.84,1162.08 2762.83,1161.48 2765.05,1161.63C2767.27,1161.78 2769.16,1162.63 2770.72,1164.18C2772.71,1166.18 2773.6,1168.48 2773.38,1171.07C2773.16,1173.81 2772.01,1175.92 2769.94,1177.4C2759.5,1185.69 2747.55,1189.83 2734.08,1189.83ZM2857.09,1189.83C2851.17,1189.83 2845.76,1188.09 2840.88,1184.61C2836.07,1181.13 2832.7,1176.55 2830.78,1170.85C2829.96,1167.89 2830.44,1165.22 2832.22,1162.85C2833.85,1160.63 2836.25,1159.41 2839.44,1159.19C2843.66,1159.19 2846.43,1161.26 2847.76,1165.41C2849.24,1169.85 2852.35,1172.07 2857.09,1172.07C2859.83,1172.07 2862.16,1171.11 2864.08,1169.18C2865.93,1167.26 2866.86,1164.92 2866.86,1162.19C2866.86,1158.93 2865.27,1156.41 2862.08,1154.64C2859.79,1153.31 2855.2,1151.79 2848.32,1150.09C2832.92,1146.16 2822.3,1140.98 2816.45,1134.54C2809.42,1126.62 2805.91,1115.49 2805.91,1101.13C2805.91,1087.06 2810.91,1075.04 2820.9,1065.05C2830.89,1054.98 2842.95,1049.95 2857.09,1049.95C2869.82,1049.95 2881.03,1054.17 2890.73,1062.6C2900.35,1071.04 2906.05,1081.55 2907.82,1094.13C2908.05,1096.94 2907.34,1099.28 2905.71,1101.13C2903.94,1103.12 2901.72,1104.12 2899.05,1104.12C2896.76,1104.12 2894.8,1103.38 2893.17,1101.9C2891.47,1100.5 2890.47,1098.72 2890.17,1096.58C2889.06,1088.36 2885.36,1081.48 2879.07,1075.93C2872.78,1070.45 2865.45,1067.71 2857.09,1067.71C2847.84,1067.71 2839.95,1070.97 2833.44,1077.48C2826.85,1084.07 2823.56,1091.95 2823.56,1101.13C2823.56,1112.45 2826.82,1120.63 2833.33,1125.66C2837.18,1128.62 2844.32,1131.36 2854.76,1133.88C2864.38,1136.17 2871.11,1138.69 2874.96,1141.43C2881.4,1145.94 2884.62,1152.86 2884.62,1162.19C2884.62,1169.81 2881.92,1176.32 2876.52,1181.73C2871.19,1187.13 2864.71,1189.83 2857.09,1189.83ZM2570.77,1184.95C2569.96,1184.95 2569.29,1184.69 2568.77,1184.17C2568.26,1183.58 2568,1182.87 2568,1182.06C2568,1181.25 2568.26,1180.58 2568.77,1180.06C2569.37,1179.54 2570.03,1179.28 2570.77,1179.28L2592.09,1179.28C2595.79,1179.28 2598.93,1177.99 2601.52,1175.4C2604.11,1172.81 2605.41,1169.66 2605.41,1165.96C2605.41,1164.92 2605.26,1163.89 2604.97,1162.85L2604.97,1162.74C2606,1162.3 2606.96,1161.85 2607.85,1161.41C2608.67,1160.97 2609.44,1160.52 2610.18,1160.08C2610.33,1160.52 2610.44,1161 2610.52,1161.52C2610.89,1162.93 2611.07,1164.41 2611.07,1165.96C2611.07,1171.22 2609.22,1175.69 2605.52,1179.39C2601.82,1183.1 2597.34,1184.95 2592.09,1184.95L2570.77,1184.95ZM2838.44,1165.3C2836.51,1166.04 2835.85,1167.29 2836.44,1169.07C2837.92,1173.51 2840.55,1177.1 2844.32,1179.84C2848.17,1182.58 2852.43,1183.95 2857.09,1183.95C2863.08,1183.95 2868.19,1181.8 2872.41,1177.51C2876.63,1173.29 2878.74,1168.18 2878.74,1162.19C2878.74,1154.79 2876.29,1149.38 2871.41,1145.98C2868.3,1143.91 2862.27,1141.8 2853.31,1139.65C2842.14,1136.91 2834.29,1133.84 2829.78,1130.44C2821.71,1124.14 2817.68,1114.38 2817.68,1101.13C2817.68,1090.32 2821.53,1081.07 2829.22,1073.37C2836.92,1065.67 2846.21,1061.83 2857.09,1061.83C2866.93,1061.83 2875.55,1065.05 2882.96,1071.49C2890.36,1078 2894.72,1086.1 2896.06,1095.8C2896.43,1097.57 2897.54,1098.35 2899.39,1098.13C2901.24,1097.83 2902.09,1096.72 2901.94,1094.8C2900.39,1083.77 2895.35,1074.52 2886.84,1067.04C2878.26,1059.64 2868.34,1055.94 2857.09,1055.94C2844.58,1055.94 2833.92,1060.35 2825.12,1069.15C2816.23,1078.04 2811.79,1088.69 2811.79,1101.13C2811.79,1114.01 2814.83,1123.81 2820.9,1130.55C2825.93,1136.1 2835.55,1140.69 2849.76,1144.31C2857.53,1146.31 2862.86,1148.16 2865.75,1149.86C2870.49,1152.75 2872.85,1156.86 2872.85,1162.19C2872.85,1166.55 2871.3,1170.29 2868.19,1173.4C2865.16,1176.43 2861.45,1177.95 2857.09,1177.95C2849.54,1177.95 2844.54,1174.36 2842.1,1167.18C2841.51,1165.48 2840.29,1164.85 2838.44,1165.3ZM2734.08,1079.59C2719.72,1079.59 2707.43,1084.66 2697.22,1094.8C2687.01,1105.01 2681.9,1117.34 2681.9,1131.77C2681.9,1146.13 2687.01,1158.41 2697.22,1168.63C2707.43,1178.84 2719.72,1183.95 2734.08,1183.95C2746.14,1183.95 2756.91,1180.21 2766.39,1172.73C2767.05,1172.22 2767.42,1171.51 2767.5,1170.62C2767.57,1169.81 2767.31,1169.11 2766.72,1168.52C2765.39,1167.18 2764.05,1167.04 2762.72,1168.07C2754.28,1174.66 2744.74,1177.95 2734.08,1177.95C2721.35,1177.95 2710.47,1173.44 2701.44,1164.41C2692.34,1155.38 2687.78,1144.5 2687.78,1131.77C2687.78,1118.96 2692.34,1108.05 2701.44,1099.02C2710.47,1089.99 2721.35,1085.47 2734.08,1085.47C2744.89,1085.47 2754.43,1088.8 2762.72,1095.46C2764.05,1096.43 2765.31,1096.32 2766.5,1095.13C2767.24,1094.39 2767.57,1093.61 2767.5,1092.8C2767.42,1091.91 2767.09,1091.25 2766.5,1090.8C2756.95,1083.33 2746.14,1079.59 2734.08,1079.59Z" style="fill:white;fill-rule:nonzero;"/>
            </g>
        </g>
    </g>
</svg>
