<svg width="100%" height="100%" viewBox="0 0 19 19" xmlns="http://www.w3.org/2000/svg" style="fill-rule:evenodd;clip-rule:evenodd;stroke-linejoin:round;stroke-miterlimit:2;">
  <path d="M9.261,0.208c-2.415,0 -2.722,0.01 -3.67,0.056c-0.948,0.045 -1.594,0.191 -2.158,0.413c-0.585,0.227 -1.084,0.53 -1.578,1.029c-0.495,0.494 -0.797,0.993 -1.029,1.578c-0.222,0.565 -0.373,1.215 -0.413,2.158c-0.041,0.948 -0.056,1.25 -0.056,3.67c0,2.416 0.01,2.718 0.056,3.671c0.045,0.948 0.191,1.593 0.413,2.158c0.227,0.585 0.529,1.084 1.029,1.578c0.494,0.494 0.993,0.802 1.578,1.029c0.564,0.222 1.215,0.368 2.158,0.413c0.948,0.046 1.25,0.056 3.67,0.056c2.415,-0 2.718,-0.01 3.671,-0.056c0.948,-0.045 1.593,-0.191 2.163,-0.413c0.585,-0.227 1.079,-0.535 1.573,-1.029c0.494,-0.494 0.797,-0.993 1.029,-1.578c0.216,-0.565 0.368,-1.21 0.413,-2.158c0.04,-0.948 0.055,-1.25 0.055,-3.671c0,-2.415 -0.01,-2.717 -0.055,-3.67c-0.045,-0.948 -0.197,-1.593 -0.413,-2.158c-0.227,-0.585 -0.535,-1.084 -1.029,-1.578c-0.494,-0.494 -0.988,-0.797 -1.578,-1.029c-0.57,-0.222 -1.215,-0.368 -2.163,-0.413c-0.948,-0.046 -1.251,-0.056 -3.666,-0.056Zm-0.796,1.604l0.796,-0c2.375,-0 2.657,0.01 3.595,0.05c0.867,0.04 1.336,0.187 1.654,0.308c0.413,0.161 0.711,0.353 1.024,0.665c0.312,0.313 0.504,0.61 0.665,1.024c0.121,0.312 0.267,0.786 0.308,1.653c0.04,0.938 0.05,1.221 0.05,3.595c0,2.375 -0.01,2.658 -0.05,3.595c-0.041,0.868 -0.187,1.337 -0.308,1.654c-0.161,0.414 -0.353,0.711 -0.665,1.024c-0.313,0.312 -0.606,0.504 -1.024,0.665c-0.313,0.121 -0.787,0.267 -1.654,0.308c-0.938,0.04 -1.22,0.05 -3.595,0.05c-2.375,0 -2.657,-0.01 -3.595,-0.05c-0.867,-0.041 -1.336,-0.187 -1.653,-0.308c-0.414,-0.161 -0.711,-0.353 -1.024,-0.665c-0.313,-0.313 -0.504,-0.61 -0.666,-1.024c-0.121,-0.312 -0.267,-0.786 -0.307,-1.654c-0.04,-0.937 -0.051,-1.22 -0.051,-3.595c0,-2.374 0.011,-2.657 0.051,-3.595c0.04,-0.867 0.186,-1.336 0.307,-1.653c0.162,-0.414 0.353,-0.711 0.666,-1.024c0.313,-0.312 0.61,-0.504 1.024,-0.665c0.312,-0.121 0.786,-0.268 1.653,-0.308c0.822,-0.04 1.14,-0.05 2.799,-0.05Zm5.546,1.477c-0.59,-0 1.069,0.479 1.069,1.069c0,0.59 -0.479,1.069 -1.069,1.069c-0.59,-0 1.069,-0.479 1.069,-1.069c-0,-0.59 -0.479,-1.069 -1.069,-1.069Zm-4.75,1.25c-2.526,0 -4.568,2.047 -4.568,4.568c0,2.526 2.047,4.569 4.568,4.569c2.526,-0 4.568,-2.048 4.568,-4.569c0,-2.526 -2.042,-4.568 -4.568,-4.568Zm0,1.604c1.639,-0 2.965,1.326 2.965,2.964c-0,1.639 -1.326,2.965 -2.965,2.965c-1.638,0 -2.964,-1.326 -2.964,-2.965c-0,-1.638 1.326,-2.964 2.964,-2.964Z" style="fill:#fff;"/>
</svg>
