<?xml version="1.0" encoding="UTF-8" standalone="no"?>
<!DOCTYPE svg PUBLIC "-//W3C//DTD SVG 1.1//EN" "http://www.w3.org/Graphics/SVG/1.1/DTD/svg11.dtd">
<svg width="100%" height="100%" viewBox="0 0 74 62" version="1.1" xmlns="http://www.w3.org/2000/svg" style="fill-rule:evenodd;clip-rule:evenodd;stroke-linejoin:round;stroke-miterlimit:2;">
    <g transform="matrix(1,0,0,1,-1147,-1359)">
        <g transform="matrix(0.959184,0,0,1,32.6531,356.916)">
            <g transform="matrix(0.226181,0,0,0.216949,1162.29,1002.05)">
                <path d="M27.105,104.586C18.441,104.586 8.839,101.906 0.632,97.094L0,96.719L5.304,86.118L6.023,86.524C12.648,90.266 20.496,93.422 28.074,93.414C35.464,93.352 40.226,89.266 40.265,82.899C40.199,77.297 37.136,74.25 29.175,72.649L20.679,70.977C9.386,68.891 2.976,61.477 3.031,50.836C3.058,37.539 13.703,28.313 29.066,28.289C37.703,28.289 45.632,30.704 51.48,34.133L52.097,34.485L47.113,44.914L46.402,44.555C40.031,41.383 35,39.625 29.609,39.625C22.503,39.688 18.304,43.469 18.265,49.297C18.351,53.977 20.273,56.258 27.554,57.993L36.617,60.102C49.687,63.016 55.402,70.868 55.343,80.399C55.32,94.805 43.695,104.57 27.105,104.586Z" style="fill:white;fill-rule:nonzero;"/>
                <path d="M70.777,102.641L70.777,31.75L85.601,29.422L85.601,102.641L70.777,102.641ZM78.128,20.547C72.632,20.539 68.41,15.961 68.402,10.563C68.41,4.969 72.785,0.414 78.257,0.414C83.707,0.422 88.234,4.829 88.242,10.563C88.234,16 83.714,20.539 78.128,20.547Z" style="fill:white;fill-rule:nonzero;"/>
                <path d="M181.047,102.641L181.047,51.813C180.875,43.961 178.984,42 173.477,41.852C167.531,41.836 163.148,45.672 157.938,50.868L157.938,102.641L143.82,102.641L143.82,52.094C143.652,44.352 142.043,42.289 135.973,42.133C131.563,42.133 126.539,44.313 120.723,49.782L120.723,102.641L106.477,102.641L106.477,50.547C106.461,40.649 105.922,38.25 104.012,33.414L103.676,32.571L117.125,29.289L117.418,29.797C118.66,31.938 119.578,34.836 119.828,38.133C125.652,32.539 132.387,29.289 138.754,29.282C145.293,29.258 151.852,32.625 155.563,39.719C162.387,32.774 169.57,29.282 176.688,29.282C187.922,29.289 195.297,36.61 195.313,49.711L195.313,102.641L181.047,102.641Z" style="fill:white;fill-rule:nonzero;"/>
                <path d="M263.648,105.523C259.5,103.914 256.203,100.695 254.344,96.282C251.797,99.18 245.742,104.75 234.813,104.734C220.602,104.719 211.453,97.243 211.438,83.454C211.469,66.735 225.055,57.891 247.781,57.86C249.188,57.86 250.414,57.86 251.859,57.938L251.859,54.172C251.695,45.907 251.063,41.282 241.781,41.149C234.641,41.141 226.375,44.711 220.781,48.93L220.094,49.454L213.352,38.844L214.063,38.43C220.875,34.539 230,29.118 243.734,29.141C254.063,29.102 261.89,33.008 264.68,40.805C265.828,43.985 266.125,46.516 266.125,53.36C266.125,58.399 265.563,69.118 265.563,79.274C265.609,88.993 265.797,92.297 270.906,95.485L271.648,95.93L264.563,105.258L264.203,105.734L263.648,105.523ZM248.188,68.071C238.664,68.063 233.008,69.914 230.531,72.821C227.961,75.813 227.109,77.969 227.094,82.485C227.172,89.891 230.586,93.735 237.32,93.821C242.766,93.829 248.07,90.454 251.172,85.18L251.563,68.289C250.047,68.164 249.094,68.071 248.188,68.071Z" style="fill:white;fill-rule:nonzero;"/>
                <path d="M312.031,104.047C301.828,104.055 293.961,100.445 288.945,93.243C284.234,86.532 282.094,78.243 282.109,67.563C282.094,51.649 287.219,42.289 294.078,36.157C299.359,31.461 305.703,28.868 312.734,28.868C320.438,28.852 326.813,31.461 332.227,36.446L332.75,36.922L325.109,46.954L324.469,46.407C319.914,42.414 317,41.172 312.734,41.149C307.719,41.157 303.422,43.758 301.164,48.258C298.883,52.789 297.898,59.657 297.898,69.243C297.898,78.899 299.844,85.094 303.266,88.782C305.625,91.266 308.891,92.719 312.734,92.719C317.633,92.719 322.57,90.329 326.633,85.727L327.258,85.016L334.555,94.266L334.047,94.766C327.313,101.383 321.164,104.047 312.172,104.047L312.031,104.047Z" style="fill:white;fill-rule:nonzero;"/>
                <path d="M138.344,130.414L14.242,130.414C6.41,130.414 0,136.812 0,144.633L0,268.758C0,276.594 6.41,283 14.242,283L138.344,283C146.176,283 152.586,276.594 152.586,268.758L152.586,144.633C152.586,136.812 146.176,130.414 138.344,130.414Z" style="fill:white;fill-rule:nonzero;"/>
                <path d="M334.703,201.055L334.703,144.547C334.703,136.719 328.297,130.312 320.469,130.312L196.359,130.312C188.531,130.312 182.125,136.719 182.125,144.547L182.125,200.672C185.781,213.742 195.047,252.195 207.203,252.195C220,252.195 229.781,208.758 232.828,198.703C236.031,188.078 245.664,144.945 258.469,144.945C271.281,144.945 280.891,188.078 284.109,198.703C287.156,208.758 296.906,252.195 309.75,252.195C321.742,252.195 331.055,214.195 334.703,201.055ZM182.125,227.461L182.125,268.672C182.125,276.508 188.531,282.898 196.359,282.898L320.469,282.898C328.297,282.898 334.703,276.508 334.703,268.672L334.703,227.844C331.055,241.195 321.742,280.781 309.75,280.781C296.906,280.781 287.156,235.531 284.109,225.469C280.891,214.844 271.281,173.539 258.469,173.539C245.664,173.539 236.031,214.844 232.828,225.469C229.781,235.531 220,280.781 207.203,280.781C195.047,280.781 185.781,240.703 182.125,227.461Z" style="fill:white;fill-rule:nonzero;"/>
            </g>
        </g>
    </g>
</svg>
